PathFileType	4	(X/Y/Z)	C:\Users\WrightLab\Desktop\Jo\P3_14.trc
DataRate	CameraRate	NumFrames	NumMarkers	Units	OrigDataRate	OrigDataStartFrame	OrigNumFrames
100.00	100.00	       6	19	mm	100.00	253	       672
Frame#	Time	Headset_Front			Headset_Back			Headset_Left			Headset_Right			Left_Shoulder			Right_Shoulder			Sternum			C7			Left Elbow			Right Elbow			Left Wrist			Right Wrist			Left ASIS			Right ASIS			S2			Left Knee			Right Knee			Left Ankle			Right Ankle			
		X1	Y1	Z1	X2	Y2	Z2	X3	Y3	Z3	X4	Y4	Z4	X5	Y5	Z5	X6	Y6	Z6	X7	Y7	Z7	X8	Y8	Z8	X9	Y9	Z9	X10	Y10	Z10	X11	Y11	Z11	X12	Y12	Z12	X13	Y13	Z13	X14	Y14	Z14	X15	Y15	Z15	X16	Y16	Z16	X17	Y17	Z17	X18	Y18	Z18	X19	Y19	Z19	

253	2.520	-441.07693	1480.93713	233.25644	-573.23785	1588.33899	-17.33179	-423.60120	1540.04724	32.51373	-582.52704	1515.03589	192.13623	-389.66293	1303.79932	-58.31822	-708.50073	1317.94812	115.19400	-484.34012	1195.95996	143.10027	-576.93109	1366.03674	-14.20854	-355.67932	967.70398	-102.31421	-789.04553	975.23804	161.28558	-331.73718	777.87469	-15.00377	-718.39685	808.91785	302.07578	-422.07947	833.47253	90.55097	-651.18774	838.07629	199.25482	-623.85492	916.48547	-47.88039	-396.74762	440.77493	158.21120	-726.86389	418.53711	58.33155	-407.88058	113.25043	205.17525	-810.91766	141.09145	-124.57904	
254	2.530	-436.46375	1482.85999	240.84711	-568.28546	1589.64209	-9.49697	-418.57944	1541.72266	41.58435	-577.30493	1516.02051	199.09949	-384.77097	1304.94507	-51.67752	-702.64508	1319.36816	122.94454	-478.37570	1197.96838	150.33813	-572.04852	1367.33044	-8.06561	-350.67078	968.37457	-95.59665	-783.22870	976.82861	167.52625	-326.22113	778.59448	-7.40724	-713.88391	809.55103	307.72565	-415.68616	834.55536	97.22390	-642.52960	840.02850	205.02599	-619.49835	918.20001	-39.16788	-392.09348	440.54404	163.68301	-719.25970	416.70120	72.91276	-406.75137	112.73588	204.92056	-807.88824	146.56030	-118.24238	
255	2.540	-431.77545	1484.80786	248.37410	-563.25775	1591.33496	-2.25118	-413.35416	1543.83899	48.45060	-573.18707	1517.73657	206.41116	-379.77075	1306.37585	-45.04353	-697.12024	1320.76599	130.96523	-472.21829	1199.65771	157.48703	-566.46082	1368.34131	-0.15654	-346.51984	970.02734	-89.11888	-778.18280	978.95337	174.39101	-320.73923	780.53119	0.56630	-709.38672	809.92590	313.37878	-409.10947	837.09070	103.30139	-633.78339	840.39313	215.74860	-615.34418	919.46063	-30.26059	-388.39685	440.67645	167.52852	-711.67047	415.75293	88.82030	-406.93600	112.10883	206.32747	-804.56012	151.77539	-109.60620	
256	2.550	-426.00647	1486.75391	255.54990	-558.36676	1592.80652	4.85319	-408.41977	1546.06335	56.26339	-568.16077	1519.34448	213.69072	-374.98346	1307.76904	-38.78545	-691.34631	1322.68701	138.38980	-466.14542	1201.71497	163.55339	-561.51978	1369.87903	6.61311	-340.20105	971.73785	-81.55421	-772.66309	980.84460	181.22540	-314.61581	782.88226	7.69932	-704.48065	810.58142	318.43207	-402.01257	839.56604	109.96410	-624.20190	843.31116	230.17595	-610.77856	921.19159	-21.52969	-384.70514	441.75528	169.40427	-703.65326	415.05331	105.21161	-405.97610	112.42911	207.10271	-800.72498	157.50040	-99.59849	
257	2.560	-421.79352	1489.30212	263.20129	-553.37189	1594.55237	11.52444	-403.33246	1548.58008	61.99599	-563.23956	1521.18250	220.43529	-369.93594	1309.79932	-32.43504	-685.39154	1324.82092	146.63559	-460.51062	1203.76038	170.73891	-556.40082	1371.96582	13.88661	-334.77356	973.77753	-75.19670	-767.36462	983.42841	187.83676	-307.84201	785.27374	15.13945	-699.30219	810.99255	323.60678	-395.86783	841.83942	115.15151	-616.17303	844.88336	237.76749	-606.78033	923.36920	-13.30473	-381.47208	442.13507	172.23511	-694.14478	414.80356	123.72550	-405.33951	112.44559	207.81773	-796.33490	160.09424	-95.30890	
258	2.570	-416.46228	1491.51282	270.27313	-548.49561	1595.75037	17.68102	-398.49622	1550.39990	70.80383	-558.60144	1522.51318	227.28404	-365.89053	1311.82373	-26.73624	-680.02728	1327.22119	154.45456	-453.99789	1206.24780	177.33310	-551.53217	1373.89331	21.17416	-329.17343	975.76782	-67.87767	-761.86438	985.36066	195.10104	-302.25165	787.22034	22.58690	-694.37628	812.54901	328.89407	-390.29233	843.63788	120.88184	-607.84412	846.10895	245.12064	-602.64691	925.00513	-4.08150	-377.37369	442.73349	174.60234	-685.37823	413.65402	141.38943	-404.00510	112.38747	208.53221	-791.15582	169.75659	-76.69566	
